<?xml version="1.0"?>
<svg xmlns="http://www.w3.org/2000/svg" xmlns:xlink="http://www.w3.org/1999/xlink" viewBox="0 0 512 512" width="512" height="512"><linearGradient id="a" gradientUnits="userSpaceOnUse" x1="230.289" x2="230.289" y1="8" y2="489.578"><stop offset="0" stop-color="#00efd1"/><stop offset="1" stop-color="#00acea"/></linearGradient><linearGradient id="b" x1="335" x2="335" xlink:href="#a" y1="8" y2="489.578"/><linearGradient id="c" x1="127" x2="127" xlink:href="#a" y1="8" y2="489.578"/><linearGradient id="d" x1="230.809" x2="230.809" xlink:href="#a" y1="8" y2="489.578"/><linearGradient id="e" x1="194.45" x2="194.45" xlink:href="#a" y1="8" y2="489.578"/><linearGradient id="f" x1="142.509" x2="142.509" xlink:href="#a" y1="8" y2="489.578"/><linearGradient id="g" x1="256.084" x2="256.084" xlink:href="#a" y1="8" y2="489.578"/><linearGradient id="h" x1="369.387" x2="369.387" xlink:href="#a" y1="8" y2="489.578"/><path d="m165.519 71h129.541a8 8 0 0 0 0-16h-129.541a8 8 0 0 0 0 16z" fill="url(#a)"/><path d="m335 102.619a8 8 0 0 0 8-8v-62.329a8 8 0 0 0 -16 0v62.329a8 8 0 0 0 8 8z" fill="url(#b)"/><path d="m127 102.619a8 8 0 0 0 8-8v-62.329a8 8 0 1 0 -16 0v62.329a8 8 0 0 0 8 8z" fill="url(#c)"/><path d="m394.632 162a8 8 0 0 0 -8-8h-311.646a8 8 0 1 0 0 16h311.646a8 8 0 0 0 8-8z" fill="url(#d)"/><path d="m321.914 224a8 8 0 0 0 -8-8h-238.928a8 8 0 1 0 0 16h238.928a8 8 0 0 0 8-8z" fill="url(#e)"/><path d="m74.986 279a8 8 0 1 0 0 16h135.046a8 8 0 1 0 0-16z" fill="url(#f)"/><path d="m447 264.913v-201.458a8.774 8.774 0 0 0 -8.427-8.455h-72.718a8 8 0 0 0 0 16h65.145v183.915a123.259 123.259 0 0 0 -57.192-13.979c-68.021 0-123.468 55.23-123.468 123.28a123.2 123.2 0 0 0 4.636 33.784h-223.976v-327h54.374a8 8 0 0 0 0-16h-62.329c-4.419 0-8.045 4.037-8.045 8.455v342.811a7.816 7.816 0 0 0 8.045 7.734h237.755c19.2 43 62.535 73.577 112.8 73.577 68.022 0 123.575-55.273 123.575-123.3-.006-40.747-20.175-76.877-50.175-99.364zm-73.406 206.8a107.387 107.387 0 1 1 107.361-107.364 107.483 107.483 0 0 1 -107.361 107.361z" fill="url(#g)"/><path d="m438.11 290.753-31.765 31.594a26.455 26.455 0 0 0 -17.005-6.347h-.049a26.268 26.268 0 0 0 -18.632 7.909l-7.22 7.253c-.007.007-.013.055-.02.062l-34.392 34.413v.015.011l-20.354 20.347a8 8 0 0 0 0 11.316l11.44 11.423-6.9 6.9-12.548-12.549a8 8 0 0 0 -11.314 11.315l36.411 36.41a8 8 0 0 0 11.313-11.314l-12.548-12.548 6.908-6.908 12.254 12.422a8.192 8.192 0 0 0 5.649 2.523h.012a8.177 8.177 0 0 0 5.65-2.54l61.925-62.225a26.458 26.458 0 0 0 .786-36.436l31.709-31.72a8 8 0 0 0 -11.314-11.326zm-32.525 68.1-56.265 56.459-23.677-23.642 9.059-9.059 6.7 6.677a8 8 0 0 0 11.298-11.338l-6.682-6.653 5.839-5.839 15.327 15.48a8 8 0 0 0 11.37-11.258l-15.383-15.536 5.906-5.906 6.706 6.7a8 8 0 1 0 11.313-11.314l-6.684-6.685 1.563-1.722a10.445 10.445 0 0 1 7.345-3.217h.02a10.6 10.6 0 0 1 7.425 3.242l8.683 8.768a10.474 10.474 0 0 1 .137 14.847z" fill="url(#h)"/></svg>
