<svg xmlns="http://www.w3.org/2000/svg" width="71" height="68" viewBox="0 0 71 68">
  <g id="Group_24" data-name="Group 24" transform="translate(-554 -7436)">
    <g id="Group_23" data-name="Group 23">
      <rect id="Rectangle_57" data-name="Rectangle 57" width="71" height="68" transform="translate(554 7436)" fill="#009e44"/>
      <path id="_004-electronic" data-name="004-electronic" d="M25.685,19.529h7.251V12.758H29.1a13.1,13.1,0,0,0-1.079-2.6l2.715-2.715L25.49,2.2,22.775,4.915a13.084,13.084,0,0,0-2.6-1.079V0H12.759V3.836a13.1,13.1,0,0,0-2.6,1.079L7.447,2.2,2.2,7.446l2.715,2.715a13.084,13.084,0,0,0-1.079,2.6H0v6.771H7.541v.8L6.156,22.061a2.9,2.9,0,1,0,1.508,1.21l1.811-2.258V19.529L9.486,16.5A7.137,7.137,0,0,1,13.1,10.3V25.634L11.71,27.362a2.906,2.906,0,1,0,1.508,1.211l1.811-2.258V9.546a7.165,7.165,0,0,1,2.879-.062v16.83l1.811,2.258a2.9,2.9,0,1,0,1.508-1.211l-1.385-1.727v-15.5a7.141,7.141,0,0,1,3.91,6.362v4.513l1.811,2.258a2.9,2.9,0,1,0,1.508-1.21l-1.385-1.727Zm0,0" transform="translate(573 7454)" fill="#fff"/>
    </g>
  </g>
</svg>
